<svg width="78" height="80" viewBox="0 0 78 80" fill="none" xmlns="http://www.w3.org/2000/svg" class="h-20"><path fill-rule="evenodd" clip-rule="evenodd" d="M28.9722 56.0228L30.08 56.9604L29.0712 57.8387L30.0651 58.903L30.9556 58.0266L31.859 58.8876L30.916 59.8759L31.9432 60.7367L30.9967 61.7085L34.8626 65.6624C35.2188 65.3734 35.5141 65.0381 35.8074 64.705C36.1206 64.3492 36.4315 63.9961 36.8121 63.7049L37.7861 64.6663L38.7124 63.7601L42.5352 67.4917L41.5276 68.5219L42.5286 69.4243L41.547 70.4286L42.5073 71.4167C42.2219 71.7719 41.8902 72.0658 41.5706 72.3489C41.2349 72.6463 40.9127 72.9317 40.672 73.2638L41.6196 74.3328L42.5592 73.4099L43.5384 74.3363L46.4057 71.4805L47.3924 72.4058L49.2274 70.5821L51.0779 72.429L50.2128 73.3256L51.1842 74.3286L50.204 75.1615L53.0804 78.1428L52.1771 79.068L53.1151 80L55.1291 78.0275L54.1163 77.1922L55.1024 76.1842L54.2018 75.2579L55.1277 74.2803L54.1944 73.325L55.0929 72.3985L53.1717 70.3487L54.1914 69.4809L51.3842 66.6522L53.2245 64.7942L54.1194 65.6563L55.0767 64.7277L55.9626 65.5734L57.0067 64.5885L56.1903 63.744L58.0263 61.8898L58.8686 62.7022L59.936 61.7443L58.9952 60.7763L60.926 58.8548L61.7162 59.8052L64.6756 56.8426L63.8447 55.9706L64.7201 55.0901L66.6297 56.9808L67.5926 56.0442L68.504 56.9314L69.5405 55.9295L68.6395 54.9899L69.5435 54.0614L68.6021 53.1051L69.5363 52.1275L67.5736 50.1494L68.5299 49.2888L65.5909 46.3371L64.6202 47.269L63.7542 46.2457L62.7717 47.2057L60.8185 45.3334L59.8329 46.2822L58.9972 45.2917L58.0048 46.2644L56.9488 45.2488L56.0491 46.2442L55.0827 45.2962L54.0519 46.2864L53.1403 45.3048L52.1942 46.2306L51.1719 45.2545L50.2952 46.2751L49.2938 45.2935L46.4687 48.1161L44.6208 46.2645L45.5405 45.3103L44.5085 44.4353L46.4817 42.4527L44.5694 40.5322L45.4652 39.6013C43.9446 37.9454 42.3561 36.3794 40.7658 34.8116C39.7612 33.8213 38.7557 32.83 37.7662 31.8151L41.5274 28.1144L42.4439 28.9865L41.5791 29.8933L42.6048 30.9018L43.5575 29.9593L44.5948 30.9611L45.4149 29.9538L48.382 32.8146L49.3158 31.9233L52.2131 34.7694L53.1528 33.8631L55.1192 35.7158L56.0344 34.8282L58.0601 36.7241L58.9036 35.7545L60.7917 37.6257L61.9248 36.5847L60.8997 35.7361L62.778 33.8323L61.7224 32.6953L60.8761 33.7017L59.8394 32.7154L58.9799 33.744L56.9966 31.7941L56.0379 32.7298C54.3733 31.1677 52.7973 29.5949 51.3167 27.9969L52.1579 27.0699L53.1269 28.0127L54.1543 26.9933L52.2598 25.0851L53.2269 24.1483L54.0636 25.152L57.9671 21.3232L58.9759 22.278L59.8516 21.2671L60.7875 22.1926L61.8558 21.2387C61.5618 20.866 61.2157 20.5587 60.8792 20.2599C60.5456 19.9638 60.2215 19.676 59.9669 19.3411L60.8596 18.4232L61.8378 19.3759C61.9442 19.2657 62.0473 19.1595 62.1479 19.0559C62.3695 18.8278 62.579 18.6121 62.7848 18.3929C62.9886 18.1759 63.1886 17.9554 63.3969 17.7258L63.3979 17.7248L63.4006 17.7218L63.4011 17.7212L63.4016 17.7207L63.402 17.7202C63.4962 17.6164 63.5921 17.5107 63.6908 17.4026L64.7117 18.3982L67.6069 15.4001L66.7055 14.4738L72.4616 8.69931L71.5163 7.72057L77.1817 1.89118L76.2535 0.91659L75.2935 1.86092L74.3657 0.960778L70.4766 4.74529L69.556 3.85131L63.6895 9.62627L62.8436 8.63702L61.8548 9.60896L60.8481 8.63767L59.8587 9.61167L58.896 8.66958L57.9588 9.5801L55.9986 7.61841L54.1151 9.58236L53.1917 8.6722L50.2652 11.5027L49.3364 10.6027L47.3229 12.5505L48.3645 13.6276L44.4776 17.4174L45.3716 18.335C45.1124 18.6048 44.859 18.8748 44.6073 19.1431C43.9369 19.8576 43.2786 20.5591 42.5559 21.207L41.5697 20.2505L40.6388 21.1481C40.3458 20.8607 40.0538 20.5789 39.7659 20.3012L39.765 20.3003L39.7642 20.2996L39.7625 20.2979L39.7621 20.2976C39.0904 19.6496 38.4415 19.0235 37.8574 18.4001L39.7735 16.4667L40.5774 17.4106L41.6392 16.3981L40.6194 15.3319L41.6311 14.4486L40.7229 13.5196L41.5995 12.5981L35.774 6.75996L34.8626 7.64993L32.9173 5.71036L31.0537 7.68007L30.0791 6.73598L28.0623 8.68599L29.0461 9.68644L28.0501 10.7218L29.0006 11.5376L28.0912 12.5129C26.5875 11.0031 25.0862 9.49933 23.5883 7.99893C20.9209 5.32712 18.2641 2.66591 15.6231 0L14.6144 0.992755L15.5302 1.93454L14.6424 2.86567L16.5271 4.88437L14.6415 6.70129L18.5937 10.5849L19.4359 9.7695L20.3492 10.6192L19.4441 11.549L21.3218 13.4989L20.4492 14.4081L24.1929 18.3482L23.2583 19.3009L24.2152 20.2867L20.4378 24.0526L19.4283 23.0876L17.5309 25.0733L16.548 24.1047L15.6062 25.0081L12.6845 22.187L11.7682 23.071L9.74569 21.1768L8.92913 22.1556C8.65867 21.8946 8.39399 21.6409 8.13394 21.3917L8.1336 21.3914C7.55513 20.837 6.99963 20.3047 6.45461 19.7618C5.89383 19.2032 5.34377 18.6337 4.81685 18.0882C4.5924 17.8559 4.37206 17.6278 4.15697 17.4068L3.05575 18.3448L3.99596 19.3234C3.70714 19.6548 3.39788 19.9536 3.09141 20.2498C2.7526 20.5772 2.41717 20.9014 2.11654 21.2626L3.0279 22.2098L0.176118 25.1096L1.16606 26.1298L0.119141 27.002L2.09883 28.9046L1.12655 29.9242L2.06214 30.8766L1.21362 31.7457L2.13677 32.8617L4.02964 30.9924L4.9214 31.9288C4.34231 32.5623 3.71535 33.1562 3.09289 33.7458C2.4332 34.3707 1.77856 34.9908 1.19129 35.6482L3.16351 37.6298L4.10438 36.7021L5.02089 37.6408L3.05459 39.5507L4.02742 40.5747L3.04463 41.447L4.08797 42.5114L5.9567 40.552L8.87041 43.4312L8.87222 43.4293L9.66659 44.2237L10.5414 43.3489L9.7319 42.5394L10.8394 41.393L8.91956 39.5156L10.7995 37.6882L7.05538 33.724L7.91223 32.8305L1.32122 26.1356L2.15905 25.263L8.90018 31.7957L9.87575 30.858L7.93834 28.8913L8.92952 28.0694L7.86558 27.0188L7.01556 27.8337L6.0797 27.0124L7.0013 26.0542L6.0514 25.0741L6.9165 24.1723L7.87678 25.115L8.83718 24.1792L10.8444 26.0696L11.7699 25.171L14.6966 27.9984L15.6082 27.1062L17.579 28.9639L18.5051 28.0731L19.4702 29.0007L20.4289 28.0647L21.4138 29.0351L22.3273 27.9679L23.3464 28.9748L24.2972 28.047L28.0955 31.7952L27.1435 32.7779L28.0857 33.7436L27.1216 34.7544L28.0877 35.7435L26.1418 37.63L27.0855 38.5921L26.1472 39.563L27.1242 40.5668L26.1036 41.458L28.0597 43.4121L27.1005 44.3897L29.0165 46.3145L27.1035 48.2388L28.0503 49.208L27.1102 50.169L28.0899 51.1915L27.071 52.0734L29.978 54.9906L28.9722 56.0228ZM31.1329 48.3232L30.1757 47.3114L31.0031 46.4103L32.8269 48.2741L31.9252 49.2063L32.8574 50.1773L31.9256 51.1323L32.8566 52.1015L31.9788 53.0076L33.0256 54.0194L34.8239 52.1382L35.8051 53.0762L32.0635 56.7532L30.2325 54.9051L31.0678 54.0291L29.1122 52.0489L30.1194 51.1614L29.1952 50.1911L31.1329 48.3232ZM54.996 53.1893L56.0427 52.1868L56.9707 53.0871L57.9552 52.1251L58.8623 53.1647L62.7737 49.2832L62.8065 49.3152L62.8365 49.3448C62.8645 49.3723 62.892 49.3996 62.9192 49.4266C63.0241 49.5307 63.1242 49.6301 63.2295 49.7237C63.3288 49.8119 63.4334 49.8942 63.5482 49.9844C63.6017 50.0264 63.6573 50.0702 63.7157 50.1171L62.7185 51.137L63.6592 52.1003L62.7957 52.9962L61.8155 52.0533L58.9001 54.9439L58.0191 53.9296L57.0028 54.9126L56.0238 53.956L55.1562 54.9772L54.1148 53.9809L53.1417 54.9246L52.2667 53.9064L51.2263 54.916L50.4433 54.0487L52.2565 52.2422L53.1528 53.1224L54.1414 52.157L54.996 53.1893ZM36.9501 57.9023L38.7892 56.0686L39.5892 56.9836L41.5572 55.1325L42.428 56.0181L41.5416 56.9314L42.5594 57.8312L41.5545 58.7266L40.6111 57.8032L39.7561 58.845L38.7123 57.8327L37.7681 58.7622L36.9501 57.9023ZM35.7841 60.6436L34.8057 59.7117L33.9882 60.6538L32.1696 58.8246L33.991 57.0159L36.7098 59.8324L35.7841 60.6436ZM30.9955 40.4903L29.1634 42.3874L28.1991 41.4945L29.1965 40.4768L28.226 39.6406L29.1332 38.7257L30.9955 40.4903ZM31.9533 20.2536L30.1723 18.3738L31.9695 16.5827L32.8037 17.4291L31.9268 18.3307L32.9761 19.2403L31.9533 20.2536ZM33.8746 41.3824L32.8878 40.4155L32.0298 41.4519L31.152 40.5975L33.0005 38.7436L34.8214 40.4704L33.8746 41.3824ZM36.955 52.115L38.7553 50.2936L39.62 51.2003L37.7678 52.9676L36.955 52.115ZM48.1594 54.0695L46.3782 55.8257L45.6261 55.0356L47.4436 53.2149L48.1594 54.0695ZM4.9139 24.1295L3.99818 24.9865L3.12332 24.143L4.0452 23.2278L4.9139 24.1295ZM7.90719 36.7679L8.74609 37.6642L7.90712 38.5118L7.06641 37.641L7.90719 36.7679ZM4.90857 35.8064L4.09117 36.5983L3.20233 35.6913L4.00928 34.8603L4.90857 35.8064ZM30.0681 35.7982L30.916 36.66L30.0516 37.5446L29.2133 36.6725L30.0681 35.7982Z" fill="currentColor"></path><path d="M9.60216 44.9484L7.90265 46.6479L8.77742 47.5227L9.60216 46.6979L10.4269 47.5227L11.3017 46.6479L9.60216 44.9484Z" fill="currentColor"></path><path d="M6.30319 42.8865L7.17796 43.7613L5.52848 45.4108L6.35322 46.2355L5.47845 47.1103L3.77893 45.4108L6.30319 42.8865Z" fill="currentColor"></path><path d="M6.30319 48.2473L5.42842 49.1221L6.30319 49.9969L7.17796 49.1221L6.30319 48.2473Z" fill="currentColor"></path><path d="M9.23982 53.6582L10.0646 52.8335L9.18979 51.9587L8.31502 52.8335L9.13976 53.6582L7.49028 55.3077L10.0145 57.8319L11.714 56.1324L10.8393 55.2576L10.0145 56.0824L9.23982 55.3077L10.0646 54.4829L9.23982 53.6582Z" fill="currentColor"></path><path d="M12.0264 61.9056L12.9011 61.0308L13.7759 61.9056L12.9512 62.7304L13.7759 63.5551L12.9011 64.4299L12.0264 63.5551L12.8511 62.7304L12.0264 61.9056Z" fill="currentColor"></path><path d="M9.9645 59.8438L10.8393 58.969L11.714 59.8438L10.8393 60.7185L9.9645 59.8438Z" fill="currentColor"></path><path d="M14.963 67.6288L14.0882 68.5036L14.963 69.3783L15.8378 68.5036L14.963 67.6288Z" fill="currentColor"></path><path d="M10.0145 49.8968L9.18979 49.0721L8.31502 49.9469L9.18979 50.8216L10.0145 49.9969L11.664 51.6464L12.5388 50.7716L11.714 49.9469L12.5388 49.1221L11.664 48.2473L10.0145 49.8968Z" fill="currentColor"></path><path d="M13.3135 56.9071L12.4387 57.7819L13.3135 58.6567L14.1883 57.7819L13.3135 56.9071Z" fill="currentColor"></path><path d="M14.913 64.7922L15.7877 63.9174L16.6625 64.7922L15.7877 65.667L14.913 64.7922Z" fill="currentColor"></path></svg>